<?xml version="1.0" standalone="no"?>
<!DOCTYPE svg PUBLIC "-//W3C//DTD SVG 1.1//EN" "http://www.w3.org/Graphics/SVG/1.1/DTD/svg11.dtd" >
<svg xmlns="http://www.w3.org/2000/svg">
<metadata></metadata>
<defs>
<font id="symtextregular" horiz-adv-x="1500" >
<font-face units-per-em="2048" ascent="1638" descent="-410" />
<missing-glyph horiz-adv-x="900" />
<glyph horiz-adv-x="0" />
<glyph unicode="&#xd;" horiz-adv-x="508" />
<glyph unicode=" "  horiz-adv-x="900" />
<glyph unicode="&#x09;" horiz-adv-x="900" />
<glyph unicode="&#xa0;" horiz-adv-x="900" />
<glyph unicode="!" horiz-adv-x="600" d="M0 0v300h300v-300h-300zM0 600v900h300v-900h-300z" />
<glyph unicode="&#x22;" horiz-adv-x="1200" d="M0 900v600h300v-600h-300zM600 900v600h300v-600h-300z" />
<glyph unicode="#" horiz-adv-x="1800" d="M0 300v300h300v300h-300v300h300v300h300v-300h300v300h300v-300h300v-300h-300v-300h300v-300h-300v-300h-300v300h-300v-300h-300v300h-300zM600 600h300v300h-300v-300z" />
<glyph unicode="$" horiz-adv-x="1800" d="M0 0v300h600v300h-600v900h600v300h300v-300h600v-300h-600v-300h600v-900h-600v-300h-300v300h-600zM300 900h300v300h-300v-300zM900 300h300v300h-300v-300z" />
<glyph unicode="%" horiz-adv-x="1200" d="M0 0v600h250l50 50v250h250l50 50v550h300v-600h-250l-50 -50v-250h-250l-50 -50v-550h-300zM0 1200v300h300v-300h-300zM600 0v300h300v-300h-300z" />
<glyph unicode="&#x26;" horiz-adv-x="1200" d="M0 0v1500h300v300h300v-300h300v-300h-600v-300h300v-300h-300v-300h600v-300h-300v-300h-300v300h-300z" />
<glyph unicode="'" horiz-adv-x="600" d="M0 900v600h300v-600h-300z" />
<glyph unicode="(" horiz-adv-x="900" d="M0 300v900h250l50 50v250h300v-300h-250l-50 -50v-800l50 -50h250v-300h-300v250l-50 50h-250z" />
<glyph unicode=")" horiz-adv-x="900" d="M0 0v300h250l50 50v800l-50 50h-250v300h300v-250l50 -50h250v-900h-250l-50 -50v-250h-300z" />
<glyph unicode="*" horiz-adv-x="1200" d="M0 600v300h250l50 50v200l-50 50h-250v300h300v-250l50 -50h200l50 50v250h300v-300h-250l-50 -50v-200l50 -50h250v-300h-300v250l-50 50h-200l-50 -50v-250h-300z" />
<glyph unicode="+" horiz-adv-x="1200" d="M0 600v300h300v300h300v-300h300v-300h-300v-300h-300v300h-300z" />
<glyph unicode="," horiz-adv-x="600" d="M0 -300v600h300v-600h-300z" />
<glyph unicode="-" horiz-adv-x="1200" d="M0 600v300h900v-300h-900z" />
<glyph unicode="." horiz-adv-x="600" d="M0 0v300h300v-300h-300z" />
<glyph unicode="/" horiz-adv-x="1200" d="M0 0v600h250l50 50v250h250l50 50v550h300v-600h-250l-50 -50v-250h-250l-50 -50v-550h-300z" />
<glyph unicode="0" horiz-adv-x="1800" d="M0 0v1500h1500v-1500h-1500zM300 300h900v900h-900v-900zM600 600v300h300v-300h-300z" />
<glyph unicode="1" horiz-adv-x="900" d="M0 1200v300h600v-1500h-300v1200h-300z" />
<glyph unicode="2" d="M0 0v900h900v300h-900v300h1200v-900h-900v-300h900v-300h-1200z" />
<glyph unicode="3" d="M0 0v300h900v300h-300v300h300v300h-900v300h1200v-1500h-1200z" />
<glyph unicode="4" d="M0 600v900h300v-600h600v300h300v-1200h-300v600h-900z" />
<glyph unicode="5" d="M0 0v300h900v300h-900v900h1200v-300h-900v-300h900v-900h-1200z" />
<glyph unicode="6" d="M0 0v1500h1200v-300h-900v-300h900v-900h-1200zM300 300h600v300h-600v-300z" />
<glyph unicode="7" d="M0 1200v300h1200v-1500h-300v1200h-900z" />
<glyph unicode="8" d="M0 0v1500h1200v-1500h-1200zM300 300h600v300h-600v-300zM300 900h600v300h-600v-300z" />
<glyph unicode="9" d="M0 600v900h1200v-1500h-300v600h-900zM300 900h600v300h-600v-300z" />
<glyph unicode=":" horiz-adv-x="600" d="M0 0v300h300v-300h-300zM0 600v300h300v-300h-300z" />
<glyph unicode=";" horiz-adv-x="600" d="M0 -300v600h300v-600h-300zM0 600v300h300v-300h-300z" />
<glyph unicode="&#x3c;" horiz-adv-x="1200" d="M0 600v300h250l50 50v250h250l50 50v250h300v-300h-250l-50 -50v-250h-250l-50 -50v-200l50 -50h250v-250l50 -50h250v-300h-300v250l-50 50h-250v250l-50 50h-250z" />
<glyph unicode="=" horiz-adv-x="1200" d="M0 300v300h900v-300h-900zM0 900v300h900v-300h-900z" />
<glyph unicode="&#x3e;" horiz-adv-x="1200" d="M0 0v300h250l50 50v250h250l50 50v200l-50 50h-250v250l-50 50h-250v300h300v-250l50 -50h250v-250l50 -50h250v-300h-250l-50 -50v-250h-250l-50 -50v-250h-300z" />
<glyph unicode="?" d="M0 1200v300h1200v-900h-900v300h600v300h-900zM300 0v300h300v-300h-300z" />
<glyph unicode="@" d="M0 0v1500h1200v-900h-600v600h-300v-900h900v-300h-1200z" />
<glyph unicode="A" d="M0 0v1500h1200v-1500h-300v600h-600v-600h-300zM300 900h600v300h-600v-300z" />
<glyph unicode="B" d="M0 0v1500h900v-850l50 -50h250v-600h-1200zM300 300h600v250l-50 50h-550v-300zM300 900h300v300h-300v-300z" />
<glyph unicode="C" d="M0 0v1500h1200v-300h-900v-900h900v-300h-1200z" />
<glyph unicode="D" d="M0 0v1500h900v-250l50 -50h250v-1200h-1200zM300 300h600v850l-50 50h-550v-900z" />
<glyph unicode="E" d="M0 0v1500h1200v-300h-900v-300h600v-300h-600v-300h900v-300h-1200z" />
<glyph unicode="F" d="M0 0v1500h1200v-300h-900v-300h600v-300h-600v-600h-300z" />
<glyph unicode="G" d="M0 0v1500h1200v-300h-900v-900h600v600h300v-900h-1200z" />
<glyph unicode="H" d="M0 0v1500h300v-600h600v600h300v-1500h-300v600h-600v-600h-300z" />
<glyph unicode="I" horiz-adv-x="600" d="M0 0v1500h300v-1500h-300z" />
<glyph unicode="J" d="M0 0v300h900v1200h300v-1500h-1200z" />
<glyph unicode="K" d="M0 0v1500h300v-600h300v600h300v-850l50 -50h250v-600h-300v550l-50 50h-550v-600h-300z" />
<glyph unicode="L" d="M0 0v1500h300v-1200h900v-300h-1200z" />
<glyph unicode="M" horiz-adv-x="1800" d="M0 0v1500h1500v-1500h-300v1200h-300v-600h-300v600h-300v-1200h-300z" />
<glyph unicode="N" d="M0 0v1500h900v-250l50 -50h250v-1200h-300v1150l-50 50h-550v-1200h-300z" />
<glyph unicode="O" d="M0 0v1500h1200v-1500h-1200zM300 300h600v900h-600v-900z" />
<glyph unicode="P" d="M0 0v1500h1200v-900h-900v-600h-300zM300 900h600v300h-600v-300z" />
<glyph unicode="Q" d="M0 0v1500h1200v-1500h-1200zM300 300h300v300h300v600h-600v-900z" />
<glyph unicode="R" d="M0 0v1500h900v-600h300v-900h-300v600h-600v-600h-300zM300 900h300v300h-300v-300z" />
<glyph unicode="S" d="M0 0v300h900v300h-900v900h1200v-300h-900v-300h900v-900h-1200z" />
<glyph unicode="T" horiz-adv-x="1800" d="M0 1200v300h1500v-300h-600v-1200h-300v1200h-600z" />
<glyph unicode="U" d="M0 0v1500h300v-1200h600v1200h300v-1500h-1200z" />
<glyph unicode="V" d="M0 300v1200h300v-1150l50 -50h200l50 50v250h250l50 50v850h300v-900h-250l-50 -50v-250h-250l-50 -50v-250h-300v250l-50 50h-250z" />
<glyph unicode="W" horiz-adv-x="1800" d="M0 0v1500h300v-1200h300v600h300v-600h300v1200h300v-1500h-1500z" />
<glyph unicode="X" d="M0 0v600h250l50 50v200l-50 50h-250v600h300v-550l50 -50h500l50 50v550h300v-600h-250l-50 -50v-200l50 -50h250v-600h-300v550l-50 50h-500l-50 -50v-550h-300z" />
<glyph unicode="Y" d="M0 0v300h900v300h-900v900h300v-600h600v600h300v-1500h-1200z" />
<glyph unicode="Z" d="M0 0v600h250l50 50v250h550l50 50v250h-900v300h1200v-600h-250l-50 -50v-250h-550l-50 -50v-250h900v-300h-1200z" />
<glyph unicode="[" horiz-adv-x="900" d="M0 0v1500h600v-300h-300v-900h300v-300h-600z" />
<glyph unicode="\" horiz-adv-x="1200" d="M0 900v600h300v-550l50 -50h250v-250l50 -50h250v-600h-300v550l-50 50h-250v250l-50 50h-250z" />
<glyph unicode="]" horiz-adv-x="900" d="M0 0v300h300v900h-300v300h600v-1500h-600z" />
<glyph unicode="^" d="M0 1800v300h250l50 50v250h600v-250l50 -50h250v-300h-300v250l-50 50h-500l-50 -50v-250h-300z" />
<glyph unicode="_" d="M0 -300h1200v-300h-1200v300z" />
<glyph unicode="`" horiz-adv-x="900" d="M0 2100v300h300v-250l50 -50h250v-300h-300v250l-50 50h-250z" />
<glyph unicode="a" d="M0 0v1500h1200v-1500h-300v600h-600v-600h-300zM300 900h600v300h-600v-300z" />
<glyph unicode="b" d="M0 0v1500h900v-850l50 -50h250v-600h-1200zM300 300h600v250l-50 50h-550v-300zM300 900h300v300h-300v-300z" />
<glyph unicode="c" d="M0 0v1500h1200v-300h-900v-900h900v-300h-1200z" />
<glyph unicode="d" d="M0 0v1500h900v-250l50 -50h250v-1200h-1200zM300 300h600v850l-50 50h-550v-900z" />
<glyph unicode="e" d="M0 0v1500h1200v-300h-900v-300h600v-300h-600v-300h900v-300h-1200z" />
<glyph unicode="f" d="M0 0v1500h1200v-300h-900v-300h600v-300h-600v-600h-300z" />
<glyph unicode="g" d="M0 0v1500h1200v-300h-900v-900h600v600h300v-900h-1200z" />
<glyph unicode="h" d="M0 0v1500h300v-600h600v600h300v-1500h-300v600h-600v-600h-300z" />
<glyph unicode="i" horiz-adv-x="600" d="M0 0v1500h300v-1500h-300z" />
<glyph unicode="j" d="M0 0v300h900v1200h300v-1500h-1200z" />
<glyph unicode="k" d="M0 0v1500h300v-600h300v600h300v-850l50 -50h250v-600h-300v550l-50 50h-550v-600h-300z" />
<glyph unicode="l" d="M0 0v1500h300v-1200h900v-300h-1200z" />
<glyph unicode="m" horiz-adv-x="1800" d="M0 0v1500h1500v-1500h-300v1200h-300v-600h-300v600h-300v-1200h-300z" />
<glyph unicode="n" d="M0 0v1500h900v-250l50 -50h250v-1200h-300v1150l-50 50h-550v-1200h-300z" />
<glyph unicode="o" d="M0 0v1500h1200v-1500h-1200zM300 300h600v900h-600v-900z" />
<glyph unicode="p" d="M0 0v1500h1200v-900h-900v-600h-300zM300 900h600v300h-600v-300z" />
<glyph unicode="q" d="M0 0v1500h1200v-1500h-1200zM300 300h300v300h300v600h-600v-900z" />
<glyph unicode="r" d="M0 0v1500h900v-600h300v-900h-300v600h-600v-600h-300zM300 900h300v300h-300v-300z" />
<glyph unicode="s" d="M0 0v300h900v300h-900v900h1200v-300h-900v-300h900v-900h-1200z" />
<glyph unicode="t" horiz-adv-x="1800" d="M0 1200v300h1500v-300h-600v-1200h-300v1200h-600z" />
<glyph unicode="u" d="M0 0v1500h300v-1200h600v1200h300v-1500h-1200z" />
<glyph unicode="v" d="M0 300v1200h300v-1150l50 -50h200l50 50v250h250l50 50v850h300v-900h-250l-50 -50v-250h-250l-50 -50v-250h-300v250l-50 50h-250z" />
<glyph unicode="w" horiz-adv-x="1800" d="M0 0v1500h300v-1200h300v600h300v-600h300v1200h300v-1500h-1500z" />
<glyph unicode="x" d="M0 0v600h250l50 50v200l-50 50h-250v600h300v-550l50 -50h500l50 50v550h300v-600h-250l-50 -50v-200l50 -50h250v-600h-300v550l-50 50h-500l-50 -50v-550h-300z" />
<glyph unicode="y" d="M0 0v300h900v300h-900v900h300v-600h600v600h300v-1500h-1200z" />
<glyph unicode="z" d="M0 0v600h250l50 50v250h550l50 50v250h-900v300h1200v-600h-250l-50 -50v-250h-550l-50 -50v-250h900v-300h-1200z" />
<glyph unicode="{" horiz-adv-x="1200" d="M0 600v300h300v600h600v-300h-300v-900h300v-300h-600v600h-300z" />
<glyph unicode="|" horiz-adv-x="600" d="M0 -300v2100h300v-2100h-300z" />
<glyph unicode="}" horiz-adv-x="1200" d="M0 0v300h300v900h-300v300h600v-600h300v-300h-300v-600h-600z" />
<glyph unicode="~" d="M0 1800v300h250l50 50v250h300v-250l50 -50h200l50 50v250h300v-300h-250l-50 -50v-250h-300v250l-50 50h-200l-50 -50v-250h-300z" />
<glyph unicode="&#xa1;" horiz-adv-x="600" d="M0 0v900h300v-900h-300zM0 1200v300h300v-300h-300z" />
<glyph unicode="&#xa2;" horiz-adv-x="1800" d="M0 0v1500h600v300h300v-300h600v-300h-600v-900h600v-300h-600v-300h-300v300h-600zM300 300h300v900h-300v-900z" />
<glyph unicode="&#xa3;" d="M0 0v300h300v300h-300v300h300v600h900v-300h-600v-300h300v-300h-300v-300h600v-300h-1200z" />
<glyph unicode="&#xa4;" horiz-adv-x="1800" d="M0 0v600h300v300h-300v600h300v-300h900v300h300v-600h-300v-300h300v-600h-300v300h-900v-300h-300zM600 600h300v300h-300v-300z" />
<glyph unicode="&#xa5;" horiz-adv-x="1800" d="M0 600v900h300v-600h900v600h300v-900h-600v-300h300v-300h-300v-300h-300v300h-300v300h300v300h-600z" />
<glyph unicode="&#xa6;" horiz-adv-x="600" d="M0 -300v900h300v-900h-300zM0 900v900h300v-900h-300z" />
<glyph unicode="&#xa7;" horiz-adv-x="1800" d="M0 0h1200v300h-900v300h-300v1200h1500v-300h-1200v-300h900v-300h300v-1200h-1500v300zM600 600h300v300h-300v-300z" />
<glyph unicode="&#xa8;" d="M0 1800v300h300v-300h-300zM900 1800v300h300v-300h-300z" />
<glyph unicode="&#xa9;" horiz-adv-x="2100" d="M0 0v1500h250l50 50v250h1200v-250l50 -50h250v-1500h-250l-50 -50v-250h-1200v250l-50 50h-250zM300 50l50 -50h1100l50 50v1400l-50 50h-1100l-50 -50v-1400zM600 300v900h600v-300h-300v-300h300v-300h-600z" />
<glyph unicode="&#xaa;" horiz-adv-x="1650" d="M0 200v1100q0 200 200 200h1100q200 0 200 -200v-1100q0 -200 -200 -200h-1100q-200 0 -200 200zM25 200q1 -175 175 -175h1101q174 0 174 176v1099q0 175 -175 175h-1100q-174 0 -175 -175v-1100z" />
<glyph unicode="&#xab;" horiz-adv-x="2100" d="M0 600v300h250l50 50v250h250l50 50v250h300v-300h-250l-50 -50v-250h-250l-50 -50v-200l50 -50h250v-250l50 -50h250v-300h-300v250l-50 50h-250v250l-50 50h-250zM900 600v300h250l50 50v250h250l50 50v250h300v-300h-250l-50 -50v-250h-250l-50 -50v-200l50 -50h250 v-250l50 -50h250v-300h-300v250l-50 50h-250v250l-50 50h-250z" />
<glyph unicode="&#xac;" horiz-adv-x="1650" d="M0 200v1100q0 200 200 200h1100q200 0 200 -200v-1100q0 -200 -200 -200h-1100q-200 0 -200 200zM25 200q1 -175 175 -175h1101q174 0 174 176v1099q0 175 -175 175h-1100q-174 0 -175 -175v-1100z" />
<glyph unicode="&#xad;" horiz-adv-x="1200" d="M0 600v300h900v-300h-900z" />
<glyph unicode="&#xae;" horiz-adv-x="2100" d="M0 0v1500h250l50 50v250h1200v-250l50 -50h250v-1500h-250l-50 -50v-250h-1200v250l-50 50h-250zM300 50l50 -50h1100l50 50v1400l-50 50h-1100l-50 -50v-1400zM600 300v900h600v-300h-300v-600h-300z" />
<glyph unicode="&#xaf;" horiz-adv-x="1650" d="M0 200v1100q0 200 200 200h1100q200 0 200 -200v-1100q0 -200 -200 -200h-1100q-200 0 -200 200zM25 200q1 -175 175 -175h1101q174 0 174 176v1099q0 175 -175 175h-1100q-174 0 -175 -175v-1100z" />
<glyph unicode="&#xb0;" horiz-adv-x="1650" d="M0 200v1100q0 200 200 200h1100q200 0 200 -200v-1100q0 -200 -200 -200h-1100q-200 0 -200 200zM25 200q1 -175 175 -175h1101q174 0 174 176v1099q0 175 -175 175h-1100q-174 0 -175 -175v-1100z" />
<glyph unicode="&#xb1;" horiz-adv-x="1200" d="M0 0v300h900v-300h-900zM0 900v300h300v300h300v-300h300v-300h-300v-300h-300v300h-300z" />
<glyph unicode="&#xb2;" horiz-adv-x="1650" d="M0 200v1100q0 200 200 200h1100q200 0 200 -200v-1100q0 -200 -200 -200h-1100q-200 0 -200 200zM25 200q1 -175 175 -175h1101q174 0 174 176v1099q0 175 -175 175h-1100q-174 0 -175 -175v-1100z" />
<glyph unicode="&#xb3;" horiz-adv-x="1650" d="M0 200v1100q0 200 200 200h1100q200 0 200 -200v-1100q0 -200 -200 -200h-1100q-200 0 -200 200zM25 200q1 -175 175 -175h1101q174 0 174 176v1099q0 175 -175 175h-1100q-174 0 -175 -175v-1100z" />
<glyph unicode="&#xb4;" horiz-adv-x="900" d="M0 1800v300h250l50 50v250h300v-300h-250l-50 -50v-250h-300z" />
<glyph unicode="&#xb5;" d="M0 -300v1800h300v-1200h600v1200h300v-1500h-900v-300h-300z" />
<glyph unicode="&#xb6;" horiz-adv-x="1024" d="M93 1086q0 157 107.5 253t285.5 96h443v-70h-127v-1365h-82v1365h-166v-1365h-84v738q-174 8 -275.5 102.5t-101.5 245.5z" />
<glyph unicode="&#xb7;" horiz-adv-x="600" d="M0 600v300h300v-300h-300z" />
<glyph unicode="&#xb8;" horiz-adv-x="900" d="M0 -300h300v300h300v-600h-600v300z" />
<glyph unicode="&#xb9;" horiz-adv-x="1650" d="M0 200v1100q0 200 200 200h1100q200 0 200 -200v-1100q0 -200 -200 -200h-1100q-200 0 -200 200zM25 200q1 -175 175 -175h1101q174 0 174 176v1099q0 175 -175 175h-1100q-174 0 -175 -175v-1100z" />
<glyph unicode="&#xba;" horiz-adv-x="1650" d="M0 200v1100q0 200 200 200h1100q200 0 200 -200v-1100q0 -200 -200 -200h-1100q-200 0 -200 200zM25 200q1 -175 175 -175h1101q174 0 174 176v1099q0 175 -175 175h-1100q-174 0 -175 -175v-1100z" />
<glyph unicode="&#xbb;" horiz-adv-x="2100" d="M0 0v300h250l50 50v250h250l50 50v200l-50 50h-250v250l-50 50h-250v300h300v-250l50 -50h250v-250l50 -50h250v-300h-250l-50 -50v-250h-250l-50 -50v-250h-300zM900 0v300h250l50 50v250h250l50 50v200l-50 50h-250v250l-50 50h-250v300h300v-250l50 -50h250v-250 l50 -50h250v-300h-250l-50 -50v-250h-250l-50 -50v-250h-300z" />
<glyph unicode="&#xbc;" horiz-adv-x="1650" d="M0 200v1100q0 200 200 200h1100q200 0 200 -200v-1100q0 -200 -200 -200h-1100q-200 0 -200 200zM25 200q1 -175 175 -175h1101q174 0 174 176v1099q0 175 -175 175h-1100q-174 0 -175 -175v-1100z" />
<glyph unicode="&#xbd;" horiz-adv-x="1650" d="M0 200v1100q0 200 200 200h1100q200 0 200 -200v-1100q0 -200 -200 -200h-1100q-200 0 -200 200zM25 200q1 -175 175 -175h1101q174 0 174 176v1099q0 175 -175 175h-1100q-174 0 -175 -175v-1100z" />
<glyph unicode="&#xbe;" horiz-adv-x="1650" d="M0 200v1100q0 200 200 200h1100q200 0 200 -200v-1100q0 -200 -200 -200h-1100q-200 0 -200 200zM25 200q1 -175 175 -175h1101q174 0 174 176v1099q0 175 -175 175h-1100q-174 0 -175 -175v-1100z" />
<glyph unicode="&#xbf;" d="M0 0v900h900v-300h-600v-300h900v-300h-1200zM600 1200v300h300v-300h-300z" />
<glyph unicode="&#xc0;" d="M0 0v1500h1200v-1500h-300v600h-600v-600h-300zM300 900h600v300h-600v-300zM300 2100v300h300v-250l50 -50h250v-300h-300v250l-50 50h-250z" />
<glyph unicode="&#xc1;" d="M0 0v1500h1200v-1500h-300v600h-600v-600h-300zM300 900h600v300h-600v-300zM300 1800v300h250l50 50v250h300v-300h-250l-50 -50v-250h-300z" />
<glyph unicode="&#xc2;" d="M0 0v1500h1200v-1500h-300v600h-600v-600h-300zM0 1800v300h250l50 50v250h600v-250l50 -50h250v-300h-300v250l-50 50h-500l-50 -50v-250h-300zM300 900h600v300h-600v-300z" />
<glyph unicode="&#xc3;" d="M0 0v1500h1200v-1500h-300v600h-600v-600h-300zM0 1800v300h250l50 50v250h300v-250l50 -50h200l50 50v250h300v-300h-250l-50 -50v-250h-300v250l-50 50h-200l-50 -50v-250h-300zM300 900h600v300h-600v-300z" />
<glyph unicode="&#xc4;" d="M0 0v1500h1200v-1500h-300v600h-600v-600h-300zM0 1800v300h300v-300h-300zM300 900h600v300h-600v-300zM900 1800v300h300v-300h-300z" />
<glyph unicode="&#xc5;" d="M0 0v1500h1200v-1500h-300v600h-600v-600h-300zM300 900h600v300h-600v-300zM300 1800v600h600v-600h-600z" />
<glyph unicode="&#xc6;" horiz-adv-x="1800" d="M0 0v1500h1500v-300h-600v-300h600v-300h-600v-300h600v-300h-900v600h-300v-600h-300zM300 900h300v300h-300v-300z" />
<glyph unicode="&#xc7;" d="M0 0v1500h1200v-300h-900v-900h900v-300h-300v-600h-600v300h300v300h-600z" />
<glyph unicode="&#xc8;" d="M0 0v1500h1200v-300h-900v-300h600v-300h-600v-300h900v-300h-1200zM300 2100v300h300v-250l50 -50h250v-300h-300v250l-50 50h-250z" />
<glyph unicode="&#xc9;" d="M0 0v1500h1200v-300h-900v-300h600v-300h-600v-300h900v-300h-1200zM300 1800v300h250l50 50v250h300v-300h-250l-50 -50v-250h-300z" />
<glyph unicode="&#xca;" d="M0 0v1500h1200v-300h-900v-300h600v-300h-600v-300h900v-300h-1200zM0 1800v300h250l50 50v250h600v-250l50 -50h250v-300h-300v250l-50 50h-500l-50 -50v-250h-300z" />
<glyph unicode="&#xcb;" d="M0 0v1500h1200v-300h-900v-300h600v-300h-600v-300h900v-300h-1200zM0 1800v300h300v-300h-300zM900 1800v300h300v-300h-300z" />
<glyph unicode="&#xcc;" horiz-adv-x="600" d="M-300 2100v300h300v-250l50 -50h250v-300h-300v250l-50 50h-250zM0 0v1500h300v-1500h-300z" />
<glyph unicode="&#xcd;" horiz-adv-x="600" d="M-300 1800v300h250l50 50v250h300v-300h-250l-50 -50v-250h-300zM0 0v1500h300v-1500h-300z" />
<glyph unicode="&#xce;" horiz-adv-x="600" d="M-300 1800v300h250l50 50v250h600v-250l50 -50h250v-300h-300v250l-50 50h-500l-50 -50v-250h-300zM0 0v1500h300v-1500h-300z" />
<glyph unicode="&#xcf;" horiz-adv-x="600" d="M-300 1800v300h300v-300h-300zM0 0v1500h300v-1500h-300zM600 1800v300h300v-300h-300z" />
<glyph unicode="&#xd0;" d="M0 0v1500h900v-250l50 -50h250v-1200h-1200zM300 300h600v850l-50 50h-550v-300h300v-300h-300v-300z" />
<glyph unicode="&#xd1;" d="M0 0v1500h900v-250l50 -50h250v-1200h-300v1150l-50 50h-550v-1200h-300zM0 1800v300h250l50 50v250h300v-250l50 -50h200l50 50v250h300v-300h-250l-50 -50v-250h-300v250l-50 50h-200l-50 -50v-250h-300z" />
<glyph unicode="&#xd2;" d="M0 0v1500h1200v-1500h-1200zM300 300h600v900h-600v-900zM300 2100v300h300v-250l50 -50h250v-300h-300v250l-50 50h-250z" />
<glyph unicode="&#xd3;" d="M0 0v1500h1200v-1500h-1200zM300 300h600v900h-600v-900zM300 1800v300h250l50 50v250h300v-300h-250l-50 -50v-250h-300z" />
<glyph unicode="&#xd4;" d="M0 0v1500h1200v-1500h-1200zM0 1800v300h250l50 50v250h600v-250l50 -50h250v-300h-300v250l-50 50h-500l-50 -50v-250h-300zM300 300h600v900h-600v-900z" />
<glyph unicode="&#xd5;" d="M0 0v1500h1200v-1500h-1200zM0 1800v300h250l50 50v250h300v-250l50 -50h200l50 50v250h300v-300h-250l-50 -50v-250h-300v250l-50 50h-200l-50 -50v-250h-300zM300 300h600v900h-600v-900z" />
<glyph unicode="&#xd6;" d="M0 0v1500h1200v-1500h-1200zM0 1800v300h300v-300h-300zM300 300h600v900h-600v-900zM900 1800v300h300v-300h-300z" />
<glyph unicode="&#xd7;" horiz-adv-x="1200" d="M0 300v300h250l50 50v200l-50 50h-250v300h300v-250l50 -50h200l50 50v250h300v-300h-250l-50 -50v-200l50 -50h250v-300h-300v250l-50 50h-200l-50 -50v-250h-300z" />
<glyph unicode="&#xd8;" d="M0 0v1500h1200v-1500h-1200zM300 900h250l50 50v250h-300v-300zM600 300h300v600h-250l-50 -50v-550z" />
<glyph unicode="&#xd9;" d="M0 0v1500h300v-1200h600v1200h300v-1500h-1200zM300 2100v300h300v-250l50 -50h250v-300h-300v250l-50 50h-250z" />
<glyph unicode="&#xda;" d="M0 0v1500h300v-1200h600v1200h300v-1500h-1200zM300 1800v300h250l50 50v250h300v-300h-250l-50 -50v-250h-300z" />
<glyph unicode="&#xdb;" d="M0 0v1500h300v-1200h600v1200h300v-1500h-1200zM0 1800v300h250l50 50v250h600v-250l50 -50h250v-300h-300v250l-50 50h-500l-50 -50v-250h-300z" />
<glyph unicode="&#xdc;" d="M0 0v1500h300v-1200h600v1200h300v-1500h-1200zM0 1800v300h300v-300h-300zM900 1800v300h300v-300h-300z" />
<glyph unicode="&#xdd;" d="M0 0v300h900v300h-900v900h300v-600h600v600h300v-1500h-1200zM300 1800v300h250l50 50v250h300v-300h-250l-50 -50v-250h-300z" />
<glyph unicode="&#xde;" d="M0 0v1500h300v-300h600v-250l50 -50h250v-300h-250l-50 -50v-250h-600v-300h-300zM300 600h550l50 50v200l-50 50h-550v-300z" />
<glyph unicode="&#xdf;" d="M0 0v1200h250l50 50v250h600v-850l50 -50h250v-600h-600v300h300v250l-50 50h-250v600h-250l-50 -50v-1150h-300z" />
<glyph unicode="&#xe0;" d="M0 0v1500h1200v-1500h-300v600h-600v-600h-300zM300 900h600v300h-600v-300zM300 2100v300h300v-250l50 -50h250v-300h-300v250l-50 50h-250z" />
<glyph unicode="&#xe1;" d="M0 0v1500h1200v-1500h-300v600h-600v-600h-300zM300 900h600v300h-600v-300zM300 1800v300h250l50 50v250h300v-300h-250l-50 -50v-250h-300z" />
<glyph unicode="&#xe2;" d="M0 0v1500h1200v-1500h-300v600h-600v-600h-300zM0 1800v300h250l50 50v250h600v-250l50 -50h250v-300h-300v250l-50 50h-500l-50 -50v-250h-300zM300 900h600v300h-600v-300z" />
<glyph unicode="&#xe3;" d="M0 0v1500h1200v-1500h-300v600h-600v-600h-300zM0 1800v300h250l50 50v250h300v-250l50 -50h200l50 50v250h300v-300h-250l-50 -50v-250h-300v250l-50 50h-200l-50 -50v-250h-300zM300 900h600v300h-600v-300z" />
<glyph unicode="&#xe4;" d="M0 0v1500h1200v-1500h-300v600h-600v-600h-300zM0 1800v300h300v-300h-300zM300 900h600v300h-600v-300zM900 1800v300h300v-300h-300z" />
<glyph unicode="&#xe5;" d="M0 0v1500h1200v-1500h-300v600h-600v-600h-300zM300 900h600v300h-600v-300zM300 1800v600h600v-600h-600z" />
<glyph unicode="&#xe6;" horiz-adv-x="1800" d="M0 0v1500h1500v-300h-600v-300h600v-300h-600v-300h600v-300h-900v600h-300v-600h-300zM300 900h300v300h-300v-300z" />
<glyph unicode="&#xe7;" d="M0 0v1500h1200v-300h-900v-900h900v-300h-300v-600h-600v300h300v300h-600z" />
<glyph unicode="&#xe8;" d="M0 0v1500h1200v-300h-900v-300h600v-300h-600v-300h900v-300h-1200zM300 2100v300h300v-250l50 -50h250v-300h-300v250l-50 50h-250z" />
<glyph unicode="&#xe9;" d="M0 0v1500h1200v-300h-900v-300h600v-300h-600v-300h900v-300h-1200zM300 1800v300h250l50 50v250h300v-300h-250l-50 -50v-250h-300z" />
<glyph unicode="&#xea;" d="M0 0v1500h1200v-300h-900v-300h600v-300h-600v-300h900v-300h-1200zM0 1800v300h250l50 50v250h600v-250l50 -50h250v-300h-300v250l-50 50h-500l-50 -50v-250h-300z" />
<glyph unicode="&#xeb;" d="M0 0v1500h1200v-300h-900v-300h600v-300h-600v-300h900v-300h-1200zM0 1800v300h300v-300h-300zM900 1800v300h300v-300h-300z" />
<glyph unicode="&#xec;" horiz-adv-x="600" d="M-300 2100v300h300v-250l50 -50h250v-300h-300v250l-50 50h-250zM0 0v1500h300v-1500h-300z" />
<glyph unicode="&#xed;" horiz-adv-x="600" d="M-300 1800v300h250l50 50v250h300v-300h-250l-50 -50v-250h-300zM0 0v1500h300v-1500h-300z" />
<glyph unicode="&#xee;" horiz-adv-x="600" d="M-300 1800v300h250l50 50v250h600v-250l50 -50h250v-300h-300v250l-50 50h-500l-50 -50v-250h-300zM0 0v1500h300v-1500h-300z" />
<glyph unicode="&#xef;" horiz-adv-x="600" d="M-300 1800v300h300v-300h-300zM0 0v1500h300v-1500h-300zM600 1800v300h300v-300h-300z" />
<glyph unicode="&#xf0;" d="M0 0v1500h900v-250l50 -50h250v-1200h-1200zM300 300h600v850l-50 50h-550v-300h300v-300h-300v-300z" />
<glyph unicode="&#xf1;" d="M0 0v1500h900v-250l50 -50h250v-1200h-300v1150l-50 50h-550v-1200h-300zM0 1800v300h250l50 50v250h300v-250l50 -50h200l50 50v250h300v-300h-250l-50 -50v-250h-300v250l-50 50h-200l-50 -50v-250h-300z" />
<glyph unicode="&#xf2;" d="M0 0v1500h1200v-1500h-1200zM300 300h600v900h-600v-900zM300 2100v300h300v-250l50 -50h250v-300h-300v250l-50 50h-250z" />
<glyph unicode="&#xf3;" d="M0 0v1500h1200v-1500h-1200zM300 300h600v900h-600v-900zM300 1800v300h250l50 50v250h300v-300h-250l-50 -50v-250h-300z" />
<glyph unicode="&#xf4;" d="M0 0v1500h1200v-1500h-1200zM0 1800v300h250l50 50v250h600v-250l50 -50h250v-300h-300v250l-50 50h-500l-50 -50v-250h-300zM300 300h600v900h-600v-900z" />
<glyph unicode="&#xf5;" d="M0 0v1500h1200v-1500h-1200zM0 1800v300h250l50 50v250h300v-250l50 -50h200l50 50v250h300v-300h-250l-50 -50v-250h-300v250l-50 50h-200l-50 -50v-250h-300zM300 300h600v900h-600v-900z" />
<glyph unicode="&#xf6;" d="M0 0v1500h1200v-1500h-1200zM0 1800v300h300v-300h-300zM300 300h600v900h-600v-900zM900 1800v300h300v-300h-300z" />
<glyph unicode="&#xf7;" horiz-adv-x="1200" d="M0 600v300h900v-300h-900zM300 0v300h300v-300h-300zM300 1200v300h300v-300h-300z" />
<glyph unicode="&#xf8;" d="M0 0v1500h1200v-1500h-1200zM300 900h250l50 50v250h-300v-300zM600 300h300v600h-250l-50 -50v-550z" />
<glyph unicode="&#xf9;" d="M0 0v1500h300v-1200h600v1200h300v-1500h-1200zM300 2100v300h300v-250l50 -50h250v-300h-300v250l-50 50h-250z" />
<glyph unicode="&#xfa;" d="M0 0v1500h300v-1200h600v1200h300v-1500h-1200zM300 1800v300h250l50 50v250h300v-300h-250l-50 -50v-250h-300z" />
<glyph unicode="&#xfb;" d="M0 0v1500h300v-1200h600v1200h300v-1500h-1200zM0 1800v300h250l50 50v250h600v-250l50 -50h250v-300h-300v250l-50 50h-500l-50 -50v-250h-300z" />
<glyph unicode="&#xfc;" d="M0 0v1500h300v-1200h600v1200h300v-1500h-1200zM0 1800v300h300v-300h-300zM900 1800v300h300v-300h-300z" />
<glyph unicode="&#xfd;" d="M0 0v300h900v300h-900v900h300v-600h600v600h300v-1500h-1200zM300 1800v300h250l50 50v250h300v-300h-250l-50 -50v-250h-300z" />
<glyph unicode="&#xfe;" d="M0 0v1500h300v-300h600v-250l50 -50h250v-300h-250l-50 -50v-250h-600v-300h-300zM300 600h550l50 50v200l-50 50h-550v-300z" />
<glyph unicode="&#xff;" d="M0 0v300h900v300h-900v900h300v-600h600v600h300v-1500h-1200zM0 1800v300h300v-300h-300zM900 1800v300h300v-300h-300z" />
<glyph unicode="&#x2c6;" d="M0 1800v300h250l50 50v250h600v-250l50 -50h250v-300h-300v250l-50 50h-500l-50 -50v-250h-300z" />
<glyph unicode="&#x2dc;" d="M0 1800v300h250l50 50v250h300v-250l50 -50h200l50 50v250h300v-300h-250l-50 -50v-250h-300v250l-50 50h-200l-50 -50v-250h-300z" />
<glyph unicode="&#x2000;" horiz-adv-x="1200" />
<glyph unicode="&#x2001;" horiz-adv-x="2400" />
<glyph unicode="&#x2002;" horiz-adv-x="1200" />
<glyph unicode="&#x2003;" horiz-adv-x="2400" />
<glyph unicode="&#x2004;" horiz-adv-x="800" />
<glyph unicode="&#x2005;" horiz-adv-x="600" />
<glyph unicode="&#x2006;" horiz-adv-x="400" />
<glyph unicode="&#x2007;" horiz-adv-x="400" />
<glyph unicode="&#x2008;" horiz-adv-x="300" />
<glyph unicode="&#x2009;" horiz-adv-x="480" />
<glyph unicode="&#x200a;" horiz-adv-x="133" />
<glyph unicode="&#x2010;" horiz-adv-x="1200" d="M0 600v300h900v-300h-900z" />
<glyph unicode="&#x2011;" horiz-adv-x="1200" d="M0 600v300h900v-300h-900z" />
<glyph unicode="&#x2012;" horiz-adv-x="1200" d="M0 600v300h900v-300h-900z" />
<glyph unicode="&#x2013;" horiz-adv-x="1200" d="M0 600v300h900v-300h-900z" />
<glyph unicode="&#x2014;" d="M0 600v300h1200v-300h-1200z" />
<glyph unicode="&#x2018;" horiz-adv-x="600" d="M0 900v600h300v-600h-300z" />
<glyph unicode="&#x2019;" horiz-adv-x="600" d="M0 900v600h300v-600h-300z" />
<glyph unicode="&#x201a;" horiz-adv-x="600" d="M0 -300v600h300v-600h-300z" />
<glyph unicode="&#x201c;" horiz-adv-x="1200" d="M0 900v600h300v-600h-300zM600 900v600h300v-600h-300z" />
<glyph unicode="&#x201d;" horiz-adv-x="1200" d="M0 900v600h300v-600h-300zM600 900v600h300v-600h-300z" />
<glyph unicode="&#x201e;" horiz-adv-x="1200" d="M0 -300v600h300v-600h-300zM600 -300v600h300v-600h-300z" />
<glyph unicode="&#x2022;" horiz-adv-x="900" d="M0 300v900h600v-900h-600z" />
<glyph unicode="&#x2026;" horiz-adv-x="1800" d="M0 0v300h300v-300h-300zM600 0v300h300v-300h-300zM1200 0v300h300v-300h-300z" />
<glyph unicode="&#x202f;" horiz-adv-x="480" />
<glyph unicode="&#x2039;" horiz-adv-x="1200" d="M0 600v300h250l50 50v250h250l50 50v250h300v-300h-250l-50 -50v-250h-250l-50 -50v-200l50 -50h250v-250l50 -50h250v-300h-300v250l-50 50h-250v250l-50 50h-250z" />
<glyph unicode="&#x203a;" horiz-adv-x="1200" d="M0 0v300h250l50 50v250h250l50 50v200l-50 50h-250v250l-50 50h-250v300h300v-250l50 -50h250v-250l50 -50h250v-300h-250l-50 -50v-250h-250l-50 -50v-250h-300z" />
<glyph unicode="&#x205f;" horiz-adv-x="600" />
<glyph unicode="&#x20ac;" d="M0 600v300h300v600h900v-300h-600v-300h300v-300h-300v-300h600v-300h-900v600h-300z" />
<glyph unicode="&#x2122;" horiz-adv-x="3000" d="M0 1200v300h900v-300h-300v-600h-300v600h-300zM1200 600v900h1500v-900h-300v600h-300v-600h-300v600h-300v-600h-300z" />
<glyph unicode="&#x25fc;" d="M0 0v1500h1500v-1500h-1500z" />
</font>
</defs>
</svg>
